<?xml version="1.0" standalone="no"?>
<!DOCTYPE svg PUBLIC "-//W3C//DTD SVG 20010904//EN"
 "http://www.w3.org/TR/2001/REC-SVG-20010904/DTD/svg10.dtd">
<svg version="1.0" xmlns="http://www.w3.org/2000/svg"
 width="603.000000pt" height="144.000000pt" viewBox="0 0 603.000000 144.000000"
 preserveAspectRatio="xMidYMid meet">

<g transform="translate(0.000000,144.000000) scale(0.100000,-0.100000)"
fill="#000000" stroke="none">
<path d="M3464 1426 c-367 -83 -605 -445 -543 -826 48 -297 271 -532 560 -586
367 -70 718 131 833 476 26 78 46 200 46 276 l0 44 -375 0 -376 0 3 -92 3 -93
263 -3 c144 -1 262 -6 262 -11 0 -19 -41 -126 -62 -160 -61 -100 -154 -180
-256 -220 -182 -72 -398 -35 -539 93 -236 213 -237 579 -3 789 97 88 203 127
340 127 154 0 254 -40 368 -145 l65 -61 94 17 c52 9 97 19 100 23 10 9 -45 86
-111 154 -75 78 -176 142 -281 178 -67 23 -100 28 -205 30 -81 2 -146 -1 -186
-10z"/>
<path d="M27 1418 c4 -7 38 -58 76 -113 171 -247 430 -642 456 -693 50 -99 54
-125 60 -367 l6 -230 93 -3 93 -3 -3 274 -3 274 -69 133 c-38 73 -159 270
-269 437 l-201 303 -123 0 c-97 0 -122 -3 -116 -12z"/>
<path d="M1158 1413 c-32 -37 -308 -465 -308 -477 0 -23 92 -177 104 -173 6 2
44 53 84 113 133 199 342 521 348 538 5 14 -6 16 -103 16 -92 0 -112 -3 -125
-17z"/>
<path d="M1660 720 l0 -710 455 0 456 0 -3 92 -3 93 -355 0 -355 0 -3 237 -2
238 307 2 308 3 3 92 3 93 -308 2 -308 3 -3 187 -2 188 357 2 358 3 3 93 3 92
-456 0 -455 0 0 -710z"/>
<path d="M5038 1193 c-53 -131 -133 -326 -178 -433 -267 -641 -302 -732 -290
-740 7 -5 53 -7 102 -7 l90 2 187 450 c103 248 220 532 261 632 41 100 76 180
79 178 10 -11 237 -571 234 -578 -3 -4 -75 -7 -160 -6 -85 0 -159 -3 -164 -8
-9 -9 -69 -151 -69 -164 0 -5 109 -10 241 -11 l242 -3 82 -196 c45 -108 93
-218 106 -245 l24 -49 89 -3 c49 -2 93 1 98 6 4 4 -116 307 -268 673 -152 365
-283 681 -291 702 l-15 37 -152 0 -152 0 -96 -237z"/>
</g>
</svg>
